# xmcd
#
# Track frame offsets: 
#        182
#        13117
#        27525
#        40432
#        54490
#        69115
#        83205
#        94000
#        108007
#        118550
#        132002
#        145620
#
# Disc length: 2126 seconds
#
# Revision: 0
# Processed by: cddbd v1.5.2PL0 Copyright (c) Steve Scherf et al.
# Submitted via: ExactAudioCopy v0.99pb3
#
DISCID=94084c0c
DTITLE=George Formby - George Formby
DYEAR=1900
DGENRE=Country
TTITLE0=WHEN IM CLEANING WINDOWS
TTITLE1=WHY DONT WOMEN LIKE ME?
TTITLE2=YOU CANT KEEP A GROWING LAD DOWN
TTITLE3=SWIMMIN WITH THE WIMMIN
TTITLE4=THE OLD KITCHEN KETTLE
TTITLE5=WITH MY LITTLE UKELELE IN MY HAND
TTITLE6=CHINESE LAUNDRY BLUES
TTITLE7=SITTING ON THE ICE IN THE ICE RINK
TTITLE8=RUNNING ROUND THE FOUNTAINS IN TRAFALGAR SQUARE
TTITLE9=FANLIGHT FANNY
TTITLE10=ITS NO USE LOOKING AT ME
TTITLE11=LEANING ON A LAMP POST
EXTD=
EXTT0=
EXTT1=
EXTT2=
EXTT3=
EXTT4=
EXTT5=
EXTT6=
EXTT7=
EXTT8=
EXTT9=
EXTT10=
EXTT11=
PLAYORDER=
